<svg version="1.1" id="Layer_1" xmlns="http://www.w3.org/2000/svg" xmlns:xlink="http://www.w3.org/1999/xlink" x="0px" y="0px"
	 width="100%" viewBox="0 0 736 736" enable-background="new 0 0 736 736" xml:space="preserve">
<path fill="#000000" opacity="1.000000" stroke="none" 
	d="
M259.684631,279.843506 
	C242.564041,288.550415 225.526245,288.899048 208.396820,281.209839 
	C200.798065,277.798859 199.975113,274.491119 204.610626,267.660095 
	C221.248611,243.141907 241.785706,222.516769 266.397095,205.980270 
	C267.363525,205.330933 268.342163,204.696564 269.342560,204.101364 
	C275.674286,200.334229 278.206848,200.855591 281.543610,207.620804 
	C288.166077,221.047760 289.013763,235.021515 284.615356,249.329407 
	C280.488312,262.754425 271.545258,272.255859 259.684631,279.843506 
z"/>
<path fill="#000000" opacity="1.000000" stroke="none" 
	d="
M404.397766,180.485184 
	C408.907135,181.365250 413.041870,181.957901 417.049713,183.026627 
	C421.233215,184.142227 422.879883,186.893997 421.803986,191.376984 
	C415.965942,215.702301 389.544495,233.625229 364.686035,230.866089 
	C345.877441,228.778442 331.844543,220.009827 322.095367,203.990677 
	C319.831177,200.270355 317.955719,196.378693 316.839172,192.167526 
	C315.245392,186.156387 316.477539,183.862885 322.642639,182.450729 
	C343.741608,177.617889 365.133728,176.721298 386.650177,178.273087 
	C392.443756,178.690933 398.196136,179.680099 404.397766,180.485184 
z"/>
<path fill="#000000" opacity="1.000000" stroke="none" 
	d="
M196.950821,317.851837 
	C236.504456,335.616211 239.823608,382.823425 213.612076,408.021027 
	C207.272980,414.114960 199.699341,418.263062 191.171204,420.522858 
	C185.955215,421.904999 182.934036,420.252747 181.907150,415.180328 
	C177.260132,392.225830 175.847443,369.114624 178.356461,345.760132 
	C179.067123,339.144989 179.880859,332.557983 181.095734,326.037079 
	C183.268097,314.376648 185.431900,313.302063 196.950821,317.851837 
z"/>
<path fill="#000000" opacity="1.000000" stroke="none" 
	d="
M453.676697,215.974930 
	C455.133392,212.551575 456.251617,209.380417 457.915466,206.527481 
	C460.725250,201.709763 463.325562,201.151474 468.244598,204.018524 
	C471.117798,205.693161 473.957764,207.461014 476.637451,209.425888 
	C498.988892,225.815247 518.271057,245.171982 533.448547,268.470947 
	C537.908325,275.317047 537.326843,278.245453 529.805908,281.631836 
	C511.581635,289.837646 493.446869,289.758606 476.480499,278.621307 
	C458.685577,266.940033 449.885681,250.302261 451.513458,228.624649 
	C451.827148,224.447205 452.459747,220.382065 453.676697,215.974930 
z"/>
<path fill="#000000" opacity="1.000000" stroke="none" 
	d="
M520.747192,486.715210 
	C505.353302,504.602997 488.911041,520.785828 468.906403,532.966309 
	C462.330658,536.970154 459.865570,536.251587 456.360260,529.374207 
	C445.885101,508.822021 450.165527,482.657227 466.616730,466.679993 
	C484.033142,449.765320 510.232971,445.935974 530.779541,457.301910 
	C536.470520,460.450073 537.305054,463.157684 533.696716,468.531158 
	C529.615662,474.608643 525.230469,480.481842 520.747192,486.715210 
z"/>
<path fill="#000000" opacity="1.000000" stroke="none" 
	d="
M559.251221,397.936127 
	C558.267029,403.614227 557.450684,408.877380 556.342102,414.078247 
	C554.725708,421.661804 551.978699,423.318542 544.631836,420.723480 
	C525.525208,413.974762 513.619629,400.491699 509.053864,380.874176 
	C502.855286,354.240997 517.462524,327.756439 543.132629,318.305542 
	C553.222961,314.590576 555.386902,316.120911 557.324829,326.949005 
	C561.519531,350.386017 562.174561,373.879974 559.251221,397.936127 
z"/>
<path fill="#000000" opacity="1.000000" stroke="none" 
	d="
M263.597351,460.325684 
	C286.245392,476.818756 290.341248,502.135315 283.272156,523.154541 
	C283.007111,523.942627 282.707458,524.720764 282.387939,525.488525 
	C277.945038,536.164856 274.809174,537.169006 265.417114,530.732361 
	C241.097351,514.065491 220.649750,493.560455 204.398041,468.924255 
	C199.814835,461.976471 200.743744,458.918945 208.368515,455.477142 
	C227.544693,446.821136 245.857437,448.343323 263.597351,460.325684 
z"/>
<path fill="#000000" opacity="1.000000" stroke="none" 
	d="
M387.291443,559.405884 
	C370.334320,561.312561 353.936768,560.020630 337.579376,557.822021 
	C332.477142,557.136169 327.380981,556.317810 322.342010,555.271301 
	C316.260895,554.008423 314.570251,551.056824 316.141907,545.155945 
	C321.163605,526.301697 341.518616,509.424133 361.262390,507.743805 
	C386.436584,505.601288 408.074432,517.397400 417.864471,538.601074 
	C423.911804,551.698669 422.276550,554.896057 408.060242,557.020325 
	C401.323914,558.026978 394.524292,558.609924 387.291443,559.405884 
z"/>
<path fill="#000000" opacity="1.000000" stroke="none" 
	d="
M357.861633,252.817642 
	C368.105469,244.046631 383.693451,249.985947 385.218079,262.945770 
	C385.988373,269.493134 382.238495,275.938782 376.309418,278.982880 
	C370.615051,281.906464 363.376312,280.997711 358.554779,276.753937 
	C353.608002,272.399933 351.723602,265.244080 353.971008,258.997284 
	C354.762817,256.796387 355.846191,254.721375 357.861633,252.817642 
z"/>
<path fill="#000000" opacity="1.000000" stroke="none" 
	d="
M437.327698,427.872253 
	C445.527100,425.733063 452.064117,427.864838 456.217285,433.784668 
	C460.143829,439.381470 460.064362,446.086517 456.002014,451.947052 
	C452.127197,457.536987 445.342438,459.969513 438.390503,458.261169 
	C432.687866,456.859802 427.620026,450.893463 426.799377,444.614929 
	C425.904083,437.765015 429.513641,431.852783 437.327698,427.872253 
z"/>
<path fill="#000000" opacity="1.000000" stroke="none" 
	d="
M446.128662,310.378693 
	C437.279633,311.588440 430.699493,307.770020 428.022339,300.169678 
	C425.440125,292.838745 428.200653,285.340240 434.986359,281.253662 
	C441.651062,277.239868 449.478424,278.409027 454.933472,284.233063 
	C460.176575,289.830811 460.633636,298.025269 456.019257,304.376892 
	C453.662109,307.621490 450.405060,309.476440 446.128662,310.378693 
z"/>
<path fill="#000000" opacity="1.000000" stroke="none" 
	d="
M278.976074,294.915588 
	C278.936737,282.470367 293.397095,273.071808 305.221710,282.362732 
	C310.643433,286.622742 312.528534,294.036713 310.060608,300.367065 
	C307.347198,307.327209 301.295410,311.044769 293.476807,310.554291 
	C286.760162,310.132965 281.495239,305.640869 279.685150,298.749390 
	C279.389771,297.624725 279.217926,296.467651 278.976074,294.915588 
z"/>
<path fill="#000000" opacity="1.000000" stroke="none" 
	d="
M371.461853,457.881653 
	C380.083496,460.802155 384.348694,465.858643 384.782654,473.249603 
	C385.123169,479.049225 381.483521,484.986877 375.893982,487.750366 
	C369.936646,490.695709 362.569183,489.744171 357.686646,485.398865 
	C352.978699,481.208923 351.262512,474.081055 353.496368,467.995483 
	C355.777527,461.781097 361.621979,457.775391 368.550690,457.697388 
	C369.381042,457.688049 370.212433,457.770020 371.461853,457.881653 
z"/>
<path fill="#000000" opacity="1.000000" stroke="none" 
	d="
M250.262177,360.708740 
	C255.638840,353.586060 262.011139,351.114075 269.079071,353.141846 
	C274.917328,354.816833 279.600281,360.117462 280.271698,365.893402 
	C281.073486,372.791077 278.932312,378.430756 272.739380,381.966187 
	C266.713898,385.406067 260.649872,385.162689 254.914780,381.163330 
	C248.959183,377.010284 247.947891,371.008606 248.994659,364.361542 
	C249.172897,363.229797 249.701843,362.153259 250.262177,360.708740 
z"/>
<path fill="#000000" opacity="1.000000" stroke="none" 
	d="
M474.783081,352.961304 
	C487.675720,354.387451 493.604126,367.614410 487.563019,377.140472 
	C483.703217,383.226959 476.215912,386.163544 469.329895,384.184631 
	C462.798279,382.307526 457.718414,375.498688 457.880829,368.838684 
	C458.067627,361.177948 462.849976,355.305511 470.441376,353.496704 
	C471.724274,353.191040 473.060852,353.110718 474.783081,352.961304 
z"/>
<path fill="#000000" opacity="1.000000" stroke="none" 
	d="
M306.946503,432.196533 
	C311.360565,438.574982 311.827972,444.927216 307.839935,451.153351 
	C304.281586,456.708618 298.812592,458.906647 292.339020,457.927521 
	C285.133972,456.837738 280.881500,452.320648 279.148621,445.376862 
	C277.487946,438.722260 280.544312,431.979797 286.704590,428.443207 
	C293.034027,424.809509 300.695129,426.133392 306.946503,432.196533 
z"/>
</svg>